<svg width="97" height="43" viewBox="0 0 97 43" fill="none" xmlns="http://www.w3.org/2000/svg">
<path d="M0.517045 20.642V0.278409H9.34659C10.8977 0.278409 12.2003 0.487216 13.2543 0.90483C14.3149 1.32244 15.1136 1.91241 15.6506 2.67472C16.1941 3.43703 16.4659 4.33523 16.4659 5.36932C16.4659 6.11837 16.3002 6.80114 15.9688 7.41761C15.6439 8.03409 15.1866 8.55114 14.5966 8.96875C14.0066 9.37973 13.3172 9.66477 12.5284 9.82386V10.0227C13.4034 10.0559 14.1989 10.2779 14.9148 10.6889C15.6307 11.0933 16.2008 11.6534 16.625 12.3693C17.0492 13.0786 17.2614 13.9138 17.2614 14.875C17.2614 15.9886 16.9697 16.9796 16.3864 17.848C15.8097 18.7164 14.9877 19.3991 13.9205 19.8963C12.8532 20.3935 11.5805 20.642 10.1023 20.642H0.517045ZM6.04545 16.2273H8.63068C9.55871 16.2273 10.2547 16.0549 10.7188 15.7102C11.1828 15.3589 11.4148 14.8419 11.4148 14.1591C11.4148 13.6818 11.3054 13.2775 11.0866 12.946C10.8679 12.6146 10.5563 12.3627 10.152 12.1903C9.75426 12.018 9.27367 11.9318 8.71023 11.9318H6.04545V16.2273ZM6.04545 8.51136H8.3125C8.7964 8.51136 9.22396 8.43513 9.59517 8.28267C9.96638 8.13021 10.2547 7.91146 10.4602 7.62642C10.6723 7.33475 10.7784 6.98011 10.7784 6.5625C10.7784 5.93277 10.553 5.45218 10.1023 5.12074C9.65152 4.78267 9.08144 4.61364 8.39205 4.61364H6.04545V8.51136ZM38.9474 10.4602C38.9474 12.7273 38.5066 14.6397 37.625 16.1974C36.7434 17.7486 35.5535 18.9252 34.0554 19.7273C32.5573 20.5227 30.8868 20.9205 29.044 20.9205C27.188 20.9205 25.5109 20.5194 24.0128 19.7173C22.5213 18.9086 21.3348 17.7287 20.4531 16.1776C19.5781 14.6198 19.1406 12.714 19.1406 10.4602C19.1406 8.19318 19.5781 6.28409 20.4531 4.73296C21.3348 3.17519 22.5213 1.99858 24.0128 1.20312C25.5109 0.401042 27.188 0 29.044 0C30.8868 0 32.5573 0.401042 34.0554 1.20312C35.5535 1.99858 36.7434 3.17519 37.625 4.73296C38.5066 6.28409 38.9474 8.19318 38.9474 10.4602ZM33.2599 10.4602C33.2599 9.24053 33.0975 8.21307 32.7727 7.37784C32.4545 6.53598 31.9806 5.89962 31.3509 5.46875C30.7277 5.03125 29.9588 4.8125 29.044 4.8125C28.1293 4.8125 27.357 5.03125 26.7273 5.46875C26.1042 5.89962 25.6302 6.53598 25.3054 7.37784C24.9872 8.21307 24.8281 9.24053 24.8281 10.4602C24.8281 11.6799 24.9872 12.7107 25.3054 13.5526C25.6302 14.3878 26.1042 15.0241 26.7273 15.4616C27.357 15.8925 28.1293 16.108 29.044 16.108C29.9588 16.108 30.7277 15.8925 31.3509 15.4616C31.9806 15.0241 32.4545 14.3878 32.7727 13.5526C33.0975 12.7107 33.2599 11.6799 33.2599 10.4602ZM52.4826 6.64205C52.4296 5.97917 52.181 5.46212 51.7369 5.09091C51.2994 4.7197 50.6332 4.53409 49.7383 4.53409C49.1682 4.53409 48.7009 4.60369 48.3363 4.7429C47.9783 4.87547 47.7132 5.05777 47.5408 5.28977C47.3685 5.52178 47.279 5.78693 47.2724 6.08523C47.2591 6.33049 47.3022 6.55256 47.4016 6.75142C47.5077 6.94366 47.6734 7.11932 47.8988 7.27841C48.1242 7.43087 48.4125 7.57008 48.7639 7.69602C49.1152 7.82197 49.5328 7.93466 50.0167 8.03409L51.6871 8.39205C52.814 8.63068 53.7785 8.94555 54.5806 9.33665C55.3827 9.72775 56.0389 10.1884 56.5494 10.7188C57.0598 11.2424 57.4343 11.8324 57.6729 12.4886C57.9182 13.1449 58.0442 13.8608 58.0508 14.6364C58.0442 15.9754 57.7094 17.1089 57.0465 18.0369C56.3836 18.965 55.4357 19.6709 54.2028 20.1548C52.9764 20.6387 51.5015 20.8807 49.7781 20.8807C48.0082 20.8807 46.4637 20.6188 45.1445 20.0952C43.832 19.5715 42.8112 18.7661 42.082 17.679C41.3595 16.5852 40.9949 15.1866 40.9883 13.483H46.2383C46.2714 14.1061 46.4272 14.6297 46.7056 15.054C46.984 15.4782 47.3751 15.7997 47.8789 16.0185C48.3893 16.2372 48.9959 16.3466 49.6985 16.3466C50.2885 16.3466 50.7823 16.2737 51.18 16.1278C51.5778 15.982 51.8794 15.7798 52.0849 15.5213C52.2904 15.2628 52.3964 14.9678 52.4031 14.6364C52.3964 14.3248 52.2937 14.053 52.0948 13.821C51.9026 13.5824 51.5844 13.3703 51.1403 13.1847C50.6961 12.9924 50.0962 12.8134 49.3406 12.6477L47.3121 12.2102C45.5091 11.8191 44.0872 11.1662 43.0465 10.2514C42.0124 9.33002 41.4987 8.07386 41.5053 6.48296C41.4987 5.19034 41.8434 4.06013 42.5394 3.09233C43.2421 2.1179 44.2132 1.3589 45.4528 0.815341C46.699 0.27178 48.1275 0 49.7383 0C51.3822 0 52.8041 0.275095 54.0039 0.825284C55.2037 1.37547 56.1284 2.15104 56.7781 3.15199C57.4343 4.14631 57.7657 5.30966 57.7724 6.64205H52.4826ZM71.131 6.64205C71.078 5.97917 70.8294 5.46212 70.3853 5.09091C69.9478 4.7197 69.2816 4.53409 68.3867 4.53409C67.8166 4.53409 67.3493 4.60369 66.9847 4.7429C66.6268 4.87547 66.3616 5.05777 66.1893 5.28977C66.0169 5.52178 65.9274 5.78693 65.9208 6.08523C65.9076 6.33049 65.9506 6.55256 66.0501 6.75142C66.1561 6.94366 66.3219 7.11932 66.5472 7.27841C66.7726 7.43087 67.061 7.57008 67.4123 7.69602C67.7636 7.82197 68.1812 7.93466 68.6651 8.03409L70.3356 8.39205C71.4625 8.63068 72.427 8.94555 73.229 9.33665C74.0311 9.72775 74.6874 10.1884 75.1978 10.7188C75.7082 11.2424 76.0827 11.8324 76.3214 12.4886C76.5666 13.1449 76.6926 13.8608 76.6992 14.6364C76.6926 15.9754 76.3578 17.1089 75.695 18.0369C75.0321 18.965 74.0842 19.6709 72.8512 20.1548C71.6249 20.6387 70.15 20.8807 68.4265 20.8807C66.6566 20.8807 65.1121 20.6188 63.793 20.0952C62.4805 19.5715 61.4596 18.7661 60.7305 17.679C60.0079 16.5852 59.6433 15.1866 59.6367 13.483H64.8867C64.9199 14.1061 65.0756 14.6297 65.354 15.054C65.6325 15.4782 66.0236 15.7997 66.5273 16.0185C67.0378 16.2372 67.6443 16.3466 68.3469 16.3466C68.9369 16.3466 69.4308 16.2737 69.8285 16.1278C70.2262 15.982 70.5278 15.7798 70.7333 15.5213C70.9388 15.2628 71.0449 14.9678 71.0515 14.6364C71.0449 14.3248 70.9421 14.053 70.7433 13.821C70.551 13.5824 70.2328 13.3703 69.7887 13.1847C69.3446 12.9924 68.7447 12.8134 67.989 12.6477L65.9606 12.2102C64.1576 11.8191 62.7357 11.1662 61.695 10.2514C60.6609 9.33002 60.1471 8.07386 60.1538 6.48296C60.1471 5.19034 60.4918 4.06013 61.1879 3.09233C61.8905 2.1179 62.8616 1.3589 64.1012 0.815341C65.3474 0.27178 66.7759 0 68.3867 0C70.0307 0 71.4525 0.275095 72.6523 0.825284C73.8522 1.37547 74.7769 2.15104 75.4265 3.15199C76.0827 4.14631 76.4142 5.30966 76.4208 6.64205H71.131ZM11.4943 28.642C11.4413 27.9792 11.1927 27.4621 10.7486 27.0909C10.3111 26.7197 9.64489 26.5341 8.75 26.5341C8.17992 26.5341 7.71259 26.6037 7.34801 26.7429C6.99006 26.8755 6.72491 27.0578 6.55256 27.2898C6.38021 27.5218 6.29072 27.7869 6.28409 28.0852C6.27083 28.3305 6.31392 28.5526 6.41335 28.7514C6.51941 28.9437 6.68513 29.1193 6.91051 29.2784C7.13589 29.4309 7.42424 29.5701 7.77557 29.696C8.12689 29.822 8.54451 29.9347 9.02841 30.0341L10.6989 30.392C11.8258 30.6307 12.7902 30.9455 13.5923 31.3366C14.3944 31.7277 15.0507 32.1884 15.5611 32.7188C16.0715 33.2424 16.446 33.8324 16.6847 34.4886C16.9299 35.1449 17.0559 35.8608 17.0625 36.6364C17.0559 37.9754 16.7211 39.1089 16.0582 40.0369C15.3954 40.965 14.4474 41.6709 13.2145 42.1548C11.9882 42.6387 10.5133 42.8807 8.78977 42.8807C7.01989 42.8807 5.47538 42.6188 4.15625 42.0952C2.84375 41.5715 1.82292 40.7661 1.09375 39.679C0.371212 38.5852 0.00662878 37.1866 0 35.483H5.25C5.28314 36.1061 5.43892 36.6297 5.71733 37.054C5.99574 37.4782 6.38684 37.7997 6.89062 38.0185C7.40104 38.2372 8.00758 38.3466 8.71023 38.3466C9.30019 38.3466 9.79403 38.2737 10.1918 38.1278C10.5895 37.982 10.8911 37.7798 11.0966 37.5213C11.3021 37.2628 11.4081 36.9678 11.4148 36.6364C11.4081 36.3248 11.3054 36.053 11.1065 35.821C10.9143 35.5824 10.5961 35.3703 10.152 35.1847C9.70786 34.9924 9.10795 34.8134 8.35227 34.6477L6.32386 34.2102C4.52083 33.8191 3.09896 33.1662 2.05824 32.2514C1.02415 31.33 0.510417 30.0739 0.517045 28.483C0.510417 27.1903 0.855114 26.0601 1.55114 25.0923C2.25379 24.1179 3.22491 23.3589 4.46449 22.8153C5.7107 22.2718 7.1392 22 8.75 22C10.3939 22 11.8158 22.2751 13.0156 22.8253C14.2154 23.3755 15.1402 24.151 15.7898 25.152C16.446 26.1463 16.7775 27.3097 16.7841 28.642H11.4943ZM19.1655 42.642V22.2784H24.6939V30.233H32.0121V22.2784H37.5405V42.642H32.0121V34.6875H24.6939V42.642H19.1655ZM59.8928 32.4602C59.8928 34.7273 59.4519 36.6397 58.5703 38.1974C57.6887 39.7486 56.4988 40.9252 55.0007 41.7273C53.5026 42.5227 51.8321 42.9205 49.9893 42.9205C48.1333 42.9205 46.4562 42.5194 44.9581 41.7173C43.4666 40.9086 42.2801 39.7287 41.3984 38.1776C40.5234 36.6198 40.0859 34.714 40.0859 32.4602C40.0859 30.1932 40.5234 28.2841 41.3984 26.733C42.2801 25.1752 43.4666 23.9986 44.9581 23.2031C46.4562 22.401 48.1333 22 49.9893 22C51.8321 22 53.5026 22.401 55.0007 23.2031C56.4988 23.9986 57.6887 25.1752 58.5703 26.733C59.4519 28.2841 59.8928 30.1932 59.8928 32.4602ZM54.2053 32.4602C54.2053 31.2405 54.0429 30.2131 53.718 29.3778C53.3999 28.536 52.9259 27.8996 52.2962 27.4688C51.6731 27.0312 50.9041 26.8125 49.9893 26.8125C49.0746 26.8125 48.3023 27.0312 47.6726 27.4688C47.0495 27.8996 46.5755 28.536 46.2507 29.3778C45.9325 30.2131 45.7734 31.2405 45.7734 32.4602C45.7734 33.6799 45.9325 34.7107 46.2507 35.5526C46.5755 36.3878 47.0495 37.0241 47.6726 37.4616C48.3023 37.8925 49.0746 38.108 49.9893 38.108C50.9041 38.108 51.6731 37.8925 52.2962 37.4616C52.9259 37.0241 53.3999 36.3878 53.718 35.5526C54.0429 34.7107 54.2053 33.6799 54.2053 32.4602ZM62.4506 42.642V22.2784H77.1268V26.733H67.979V30.233H76.3711V34.6875H67.979V38.1875H77.087V42.642H62.4506ZM90.8459 28.642C90.7929 27.9792 90.5443 27.4621 90.1001 27.0909C89.6626 26.7197 88.9965 26.5341 88.1016 26.5341C87.5315 26.5341 87.0642 26.6037 86.6996 26.7429C86.3416 26.8755 86.0765 27.0578 85.9041 27.2898C85.7318 27.5218 85.6423 27.7869 85.6357 28.0852C85.6224 28.3305 85.6655 28.5526 85.7649 28.7514C85.871 28.9437 86.0367 29.1193 86.2621 29.2784C86.4874 29.4309 86.7758 29.5701 87.1271 29.696C87.4785 29.822 87.8961 29.9347 88.38 30.0341L90.0504 30.392C91.1773 30.6307 92.1418 30.9455 92.9439 31.3366C93.746 31.7277 94.4022 32.1884 94.9126 32.7188C95.4231 33.2424 95.7976 33.8324 96.0362 34.4886C96.2815 35.1449 96.4074 35.8608 96.4141 36.6364C96.4074 37.9754 96.0727 39.1089 95.4098 40.0369C94.7469 40.965 93.799 41.6709 92.566 42.1548C91.3397 42.6387 89.8648 42.8807 88.1413 42.8807C86.3715 42.8807 84.8269 42.6188 83.5078 42.0952C82.1953 41.5715 81.1745 40.7661 80.4453 39.679C79.7228 38.5852 79.3582 37.1866 79.3516 35.483H84.6016C84.6347 36.1061 84.7905 36.6297 85.0689 37.054C85.3473 37.4782 85.7384 37.7997 86.2422 38.0185C86.7526 38.2372 87.3591 38.3466 88.0618 38.3466C88.6517 38.3466 89.1456 38.2737 89.5433 38.1278C89.9411 37.982 90.2427 37.7798 90.4482 37.5213C90.6536 37.2628 90.7597 36.9678 90.7663 36.6364C90.7597 36.3248 90.657 36.053 90.4581 35.821C90.2659 35.5824 89.9477 35.3703 89.5035 35.1847C89.0594 34.9924 88.4595 34.8134 87.7038 34.6477L85.6754 34.2102C83.8724 33.8191 82.4505 33.1662 81.4098 32.2514C80.3757 31.33 79.862 30.0739 79.8686 28.483C79.862 27.1903 80.2067 26.0601 80.9027 25.0923C81.6053 24.1179 82.5765 23.3589 83.816 22.8153C85.0623 22.2718 86.4908 22 88.1016 22C89.7455 22 91.1674 22.2751 92.3672 22.8253C93.567 23.3755 94.4917 24.151 95.1413 25.152C95.7976 26.1463 96.129 27.3097 96.1357 28.642H90.8459Z" fill="white"/>
</svg>
